PathFileType	4	(X/Y/Z)	c:/Users/goper/Files/vsCode/490R/osim_files/C06/C06_Fast_06.trc
DataRate	CameraRate	NumFrames	NumMarkers	Units                	OrigDataRate	OrigDataStartFrame	OrigNumFrames
250.00	250.00	7	36	mm	250.0	1669	3337
                Frame#	Time	LPSIS			LASIS			LTH1			LTH2			LTH3			LTH4			LLFE			LMFE			LSH1			LSH2			LSH3			LSH4			LLMAL			LMMAL			LCAL			LMTP5			LTOE			LMTP1			RPSIS			RASIS			RTH1			RTH2			RTH3			RTH4			RLFE			RMFE			RSH1			RSH2			RSH3			RSH4			RLMAL			RMMAL			RCAL			RMTP1			RTOE			RMTP5		
		X1	Y1	Z1	X2	Y2	Z2	X3	Y3	Z3	X4	Y4	Z4	X5	Y5	Z5	X6	Y6	Z6	X7	Y7	Z7	X8	Y8	Z8	X9	Y9	Z9	X10	Y10	Z10	X11	Y11	Z11	X12	Y12	Z12	X13	Y13	Z13	X14	Y14	Z14	X15	Y15	Z15	X16	Y16	Z16	X17	Y17	Z17	X18	Y18	Z18	X19	Y19	Z19	X20	Y20	Z20	X21	Y21	Z21	X22	Y22	Z22	X23	Y23	Z23	X24	Y24	Z24	X25	Y25	Z25	X26	Y26	Z26	X27	Y27	Z27	X28	Y28	Z28	X29	Y29	Z29	X30	Y30	Z30	X31	Y31	Z31	X32	Y32	Z32	X33	Y33	Z33	X34	Y34	Z34	X35	Y35	Z35	X36	Y36	Z36

1669	6.67200	-475.65622	1013.90472	198.40686	-652.65820	981.03217	291.68695	-562.44861	780.75330	362.80521	-562.84607	718.16821	355.66220	-634.80798	778.08447	338.52866	-624.44672	716.42914	334.29080	-528.73260	471.02533	293.00815	-509.17776	460.42831	177.56105	-448.83405	368.46158	313.14694	-449.29489	324.65167	306.20483	-512.01135	364.31357	303.16693	-502.50543	321.46689	298.74625	-433.95749	92.19147	244.95464	-437.08493	115.84326	170.05797	-362.34720	72.61799	202.84584	-539.83557	32.95537	265.37457	-589.41321	53.20639	194.84795	-558.72168	35.17583	151.85211	-470.15533	1010.39673	127.02003	-646.22137	982.23462	59.11329	-619.12952	779.10596	-28.85427	-655.85059	728.18695	-26.52112	-684.23389	817.64142	-15.76313	-710.87701	761.22339	-15.81571	-783.17462	498.39911	11.84240	-817.24310	514.41418	116.85358	-713.10327	435.08353	3.62821	-705.08484	387.64230	2.43368	-771.04150	416.36060	1.38029	-754.91022	371.97614	1.86523	-673.26562	134.82826	42.24945	-701.64722	155.50037	117.14121	-611.65204	116.91998	97.73479	-811.34314	53.13074	103.27507	-827.15900	70.05114	52.47071	-769.17657	56.43376	-4.00388
1670	6.67600	-481.38544	1012.80792	197.79825	-658.30621	980.04205	291.62875	-566.88916	780.27655	362.66037	-567.02618	717.64288	355.43069	-639.11230	777.07227	337.81290	-628.38501	715.59198	333.98157	-530.61121	470.90356	293.01422	-511.11053	460.44873	177.52002	-449.96417	368.69888	313.11090	-450.10754	325.03888	306.31281	-513.35980	364.22870	303.22583	-503.56586	321.42331	298.76614	-434.16422	92.60993	244.86362	-437.37125	116.05796	169.93698	-362.40878	72.72557	202.74643	-539.84161	32.96358	265.36142	-589.46747	53.15329	194.79591	-558.35797	35.27844	151.69028	-475.88672	1009.28577	126.57243	-652.17200	981.42865	59.01936	-625.92010	778.36584	-29.26582	-663.40198	727.64081	-27.09367	-690.73364	817.20508	-16.02307	-717.46509	760.90588	-16.42393	-791.01654	498.29712	11.95570	-824.62933	514.77362	116.99490	-722.65796	432.67682	3.08101	-715.97498	385.09525	1.81093	-781.16571	415.73999	1.30373	-766.35901	370.90408	1.75102	-692.15314	131.35391	41.70764	-720.07843	152.85666	116.59274	-631.13080	111.55357	97.23794	-832.85431	53.84795	102.24339	-848.53918	71.89254	51.26841	-790.39911	55.87091	-4.92323
1671	6.68000	-487.04663	1011.67786	197.13080	-663.95282	979.08832	291.58438	-571.33478	779.80200	362.52335	-571.03320	717.19397	355.24289	-643.67902	776.18536	337.54462	-632.53790	714.77118	333.66800	-532.49518	470.68188	292.94904	-513.01624	460.49994	177.51485	-451.14896	368.95389	313.05682	-451.30176	325.17828	306.09204	-514.57861	364.19998	303.32391	-504.47418	321.45056	298.84531	-434.51025	93.14493	244.74144	-437.71823	116.27802	169.82358	-362.49207	72.84779	202.63200	-539.83545	32.98358	265.31183	-589.46100	53.07901	194.69281	-558.36536	35.21677	151.63220	-481.24475	1008.28711	126.18041	-658.13477	980.57373	58.92955	-632.64880	777.54272	-29.77007	-669.72302	726.97949	-27.32113	-697.29755	816.65039	-16.35247	-724.20685	760.51013	-16.78843	-798.84570	498.02295	12.03057	-831.73419	514.81000	117.07879	-732.24097	430.16205	2.49886	-727.12933	382.35968	1.22316	-791.27167	415.05722	1.19798	-777.59119	369.72855	1.08970	-710.69403	128.19807	40.87218	-738.43066	150.24364	116.01418	-651.24915	106.12896	97.04649	-854.16138	54.81443	101.25043	-868.94147	73.17143	50.44099	-811.34357	55.59037	-5.77192
1672	6.68400	-492.79208	1010.46368	196.51064	-669.46124	978.01538	291.46567	-575.90399	779.35309	362.42462	-575.00153	716.75928	355.09686	-648.30115	775.23755	337.26904	-636.53247	713.87439	333.33789	-534.55554	470.51022	292.92477	-514.97980	460.51974	177.50073	-452.32071	369.31113	313.03391	-452.21683	325.52054	306.11752	-515.80127	364.19025	303.39575	-505.33997	321.38263	298.52957	-434.73611	93.40742	244.61960	-438.08591	116.47709	169.65701	-362.55991	72.98412	202.48114	-539.84503	33.13043	265.41055	-589.52814	52.99380	194.64984	-558.42267	35.15519	151.60683	-488.16006	1006.54297	124.65617	-664.28839	979.68994	58.67910	-639.38727	776.68091	-30.16692	-676.66693	726.23596	-27.72204	-703.85785	816.00397	-16.69822	-731.22034	760.00964	-16.87389	-806.48077	497.54276	12.09829	-838.72601	514.75092	117.19928	-741.92804	427.51166	1.83157	-738.41956	379.58856	0.70188	-801.30255	414.28171	1.06567	-789.84540	369.20181	0.72772	-730.16791	124.78703	40.86606	-756.85962	147.87956	115.40076	-670.99823	101.11976	96.50370	-875.31891	56.03443	100.41920	-889.19031	74.37524	49.54956	-832.00745	55.26861	-6.22727
1673	6.68800	-498.65573	1009.18036	195.82938	-675.13580	976.90271	291.32480	-580.45123	778.87537	362.30060	-579.26837	716.27161	354.87872	-652.07983	774.43646	337.24603	-641.18951	712.85291	332.92310	-536.52612	470.31012	292.82361	-516.96216	460.53516	177.52254	-453.57755	369.58282	312.96655	-453.22433	325.93130	306.08652	-517.01190	364.22015	303.41287	-506.57541	321.57471	298.86090	-434.96536	93.63527	244.44264	-438.44482	116.74625	169.52887	-362.66998	73.16250	202.33553	-539.87445	33.16161	265.37503	-589.67157	52.89186	194.62616	-558.45361	35.09043	151.57506	-494.11612	1005.26904	123.91428	-670.29590	978.69440	58.55989	-646.08514	775.62463	-30.63362	-683.51514	725.38013	-28.10886	-710.34534	815.21051	-17.05387	-737.93518	759.01074	-17.26414	-814.00043	496.91760	12.12799	-845.70599	514.51385	117.35225	-751.64966	425.02014	1.14358	-749.58002	376.79819	0.04050	-811.79639	413.51672	1.25280	-801.62885	368.02863	0.80821	-748.95160	122.04941	39.84234	-775.23755	145.73164	114.84770	-690.78406	96.55968	95.99387	-896.37738	57.46214	99.68283	-909.89716	76.50943	48.75378	-853.02930	54.91315	-7.35149
1674	6.69200	-504.33408	1007.89655	195.14169	-680.65527	975.90881	291.21075	-585.09650	778.35291	362.15750	-583.45380	715.79193	354.70572	-657.33777	773.14526	337.31857	-645.31836	711.94012	332.67834	-538.53375	470.20654	292.83923	-518.77612	460.57193	177.52504	-454.76593	369.99466	312.93643	-454.33084	326.13718	306.27191	-517.53992	364.83176	303.20578	-507.50638	321.64136	298.87189	-435.12488	93.95756	244.26062	-438.83090	117.08852	169.34879	-362.76947	73.34178	202.18237	-539.91718	33.18819	265.32117	-589.77515	52.76910	194.62891	-558.10187	35.19154	151.23410	-500.02884	1003.89740	123.24030	-676.41241	977.79181	58.40659	-652.71509	774.54681	-30.96308	-690.36658	724.44714	-28.51714	-716.86420	814.40417	-17.43343	-744.66412	758.61676	-17.57073	-821.43225	496.14633	12.20360	-852.82635	514.30542	117.94285	-761.31482	422.31067	0.47968	-760.91425	374.06812	-0.70522	-821.47144	412.58685	0.73900	-813.11981	366.90579	0.58759	-767.89642	119.30864	39.29639	-793.50366	143.77455	114.20079	-710.64935	92.14958	95.43828	-917.14856	59.11216	99.06418	-929.70508	77.97722	48.06904	-873.73413	55.02670	-7.95533
1675	6.69600	-510.17944	1006.51215	194.46577	-686.54175	974.87622	291.00482	-589.71539	777.83179	362.05090	-587.49573	715.33429	354.61523	-661.18335	772.45575	336.85590	-649.40894	711.03540	332.47272	-540.58783	470.11099	292.80051	-520.54071	460.65939	177.54082	-455.97241	370.37936	312.85324	-455.29083	326.57452	306.11020	-519.01123	364.80179	303.39410	-508.43762	321.67819	298.62793	-435.32697	94.38868	244.08707	-439.17575	117.44506	169.18306	-362.87512	73.51743	202.05408	-539.90112	33.21736	265.28119	-589.93347	52.61940	194.70668	-558.29535	35.09605	151.28128	-506.02313	1002.44135	122.54918	-682.46252	976.74146	58.12490	-659.38660	773.35968	-31.36896	-697.18048	723.34717	-28.83060	-723.22949	813.46234	-17.89517	-751.11768	757.71490	-18.09862	-828.92395	495.22165	12.26034	-859.45972	513.71246	118.07056	-771.06439	419.57382	-0.09866	-772.17249	371.35910	-1.37041	-831.84021	411.76395	0.81745	-824.33752	365.70624	-0.04482	-786.83734	116.84045	38.64185	-811.67139	142.00764	113.63631	-730.32654	88.26842	94.83904	-937.77661	60.90256	98.50221	-949.80200	80.07338	47.40142	-894.54010	55.29256	-8.47463
